<?xml version="1.0" encoding="UTF-8" standalone="no"?>
<!DOCTYPE svg PUBLIC "-//W3C//DTD SVG 1.0//EN" "http://www.w3.org/TR/2001/PR-SVG-20010719/DTD/svg10.dtd">
<svg width="107cm" height="67cm" viewBox="-3042 -782 2123 1323" xmlns="http://www.w3.org/2000/svg" xmlns:xlink="http://www.w3.org/1999/xlink">
  <defs/>
  <g id="Segundo Plano">
    <rect style="fill: #ffffff; fill-opacity: 1; stroke-opacity: 1; stroke-width: 2; stroke-dasharray: 4; stroke: #000000" x="-3040" y="-60" width="280" height="600" rx="0" ry="0"/>
    <text font-size="11.2889" style="fill: #000000; fill-opacity: 1; stroke: none;text-anchor:middle;font-family:sans-serif;font-style:normal;font-weight:normal" x="-2900" y="-24.203">
      <tspan x="-2900" y="-24.203">Combat</tspan>
      <tspan x="-2900" y="-10.0919">------------</tspan>
      <tspan x="-2900" y="4.01922"></tspan>
      <tspan x="-2900" y="18.1303">= 1. Creature Order =</tspan>
      <tspan x="-2900" y="32.2414"></tspan>
      <tspan x="-2900" y="46.3525">- Order your creatures by</tspan>
      <tspan x="-2900" y="60.4637">(i) temporary to permanent</tspan>
      <tspan x="-2900" y="74.5748">(ii) weak to strong (base strength)</tspan>
      <tspan x="-2900" y="88.6859">(iii) choose as a tie breaker</tspan>
      <tspan x="-2900" y="102.797"></tspan>
      <tspan x="-2900" y="116.908">= 2. Spells &amp; Abilities =</tspan>
      <tspan x="-2900" y="131.019"></tspan>
      <tspan x="-2900" y="145.13">- cast support spells &amp; abilities</tspan>
      <tspan x="-2900" y="159.241">- they do not affect the order</tspan>
      <tspan x="-2900" y="173.353"></tspan>
      <tspan x="-2900" y="187.464">= 3. Hit Points =</tspan>
      <tspan x="-2900" y="201.575"></tspan>
      <tspan x="-2900" y="215.686">- YOUR: sum of strength and</tspan>
      <tspan x="-2900" y="229.797">damage of your creatures and spells</tspan>
      <tspan x="-2900" y="243.908">- MONSTER: its strength</tspan>
      <tspan x="-2900" y="258.019"></tspan>
      <tspan x="-2900" y="272.13">= 4. Damage =</tspan>
      <tspan x="-2900" y="286.241"></tspan>
      <tspan x="-2900" y="300.353">- sum in order each creature's strength</tspan>
      <tspan x="-2900" y="314.464">and compare with the monster's</tspan>
      <tspan x="-2900" y="328.575"></tspan>
      <tspan x="-2900" y="342.686">- dead creatures: all with sum &lt;= monster</tspan>
      <tspan x="-2900" y="356.797">- dead monster: if strength &lt;= sum</tspan>
      <tspan x="-2900" y="370.908"></tspan>
      <tspan x="-2900" y="385.019">= 5. Casualities =</tspan>
      <tspan x="-2900" y="399.13"></tspan>
      <tspan x="-2900" y="413.241">- move to the graveyard all dead creatures</tspan>
      <tspan x="-2900" y="427.353">- the remaining creatures are not affected at all</tspan>
      <tspan x="-2900" y="441.464">- if the monster is still alive, its strength is</tspan>
      <tspan x="-2900" y="455.575">reduced to its remaining strength</tspan>
      <tspan x="-2900" y="469.686"></tspan>
      <tspan x="-2900" y="483.797">= 6. Spells &amp; Abilities= </tspan>
      <tspan x="-2900" y="497.908"></tspan>
      <tspan x="-2900" y="512.019">- cast support spells &amp; abilities</tspan>
    </text>
    <rect style="fill: #ffffff; fill-opacity: 1; stroke-opacity: 1; stroke-width: 2; stroke-dasharray: 4; stroke: #000000" x="-2460" y="-60" width="220" height="320" rx="0" ry="0"/>
    <text font-size="11.2889" style="fill: #000000; fill-opacity: 1; stroke: none;text-anchor:middle;font-family:sans-serif;font-style:normal;font-weight:normal" x="-2350" y="-23.2562">
      <tspan x="-2350" y="-23.2562">Move</tspan>
      <tspan x="-2350" y="-9.14505">-----------</tspan>
      <tspan x="-2350" y="4.96607"></tspan>
      <tspan x="-2350" y="19.0772">- only move to land or tower tiles</tspan>
      <tspan x="-2350" y="33.1883"></tspan>
      <tspan x="-2350" y="47.2994">- move at most (MV) tiles +</tspan>
      <tspan x="-2350" y="61.4105">a free tile on your territory</tspan>
      <tspan x="-2350" y="75.5216"></tspan>
      <tspan x="-2350" y="89.6327">- commanders can never</tspan>
      <tspan x="-2350" y="103.744">occupy the same tile</tspan>
      <tspan x="-2350" y="117.855">- a stronger commander can</tspan>
      <tspan x="-2350" y="131.966">move and swap position</tspan>
      <tspan x="-2350" y="146.077">with a weaker</tspan>
      <tspan x="-2350" y="160.188"></tspan>
      <tspan x="-2350" y="174.299">- when leaving your territory:</tspan>
      <tspan x="-2350" y="188.411">- you pay 1 mana of the</tspan>
      <tspan x="-2350" y="202.522">destination color</tspan>
      <tspan x="-2350" y="216.633">- owner gets +1 mana in use</tspan>
      <tspan x="-2350" y="230.744">of the same color</tspan>
    </text>
    <rect style="fill: #ffffff; fill-opacity: 1; stroke-opacity: 1; stroke-width: 2; stroke-dasharray: 4; stroke: #000000" x="-2700" y="-220" width="180" height="160" rx="0" ry="0"/>
    <text font-size="11.2889" style="fill: #000000; fill-opacity: 1; stroke: none;text-anchor:middle;font-family:sans-serif;font-style:normal;font-weight:normal" x="-2610" y="-178.425">
      <tspan x="-2610" y="-178.425">Move &amp; Combat</tspan>
      <tspan x="-2610" y="-164.314">-------------------------</tspan>
      <tspan x="-2610" y="-150.203"></tspan>
      <tspan x="-2610" y="-136.092">- either move or combat</tspan>
      <tspan x="-2610" y="-121.981"></tspan>
      <tspan x="-2610" y="-107.87">- commander and creatures</tspan>
      <tspan x="-2610" y="-93.7586">stick together.</tspan>
    </text>
    <rect style="fill: #ffffff; fill-opacity: 1; stroke-opacity: 1; stroke-width: 2; stroke-dasharray: 4; stroke: #000000" x="-2460" y="-340" width="200" height="260" rx="0" ry="0"/>
    <text font-size="11.2889" style="fill: #000000; fill-opacity: 1; stroke: none;text-anchor:middle;font-family:sans-serif;font-style:normal;font-weight:normal" x="-2360" y="-304.87">
      <tspan x="-2360" y="-304.87">Actions</tspan>
      <tspan x="-2360" y="-290.759">-----------</tspan>
      <tspan x="-2360" y="-276.647"></tspan>
      <tspan x="-2360" y="-262.536">= Once =</tspan>
      <tspan x="-2360" y="-248.425"></tspan>
      <tspan x="-2360" y="-234.314">- move &amp; combat</tspan>
      <tspan x="-2360" y="-220.203">- reserve spell</tspan>
      <tspan x="-2360" y="-206.092">- promote creature</tspan>
      <tspan x="-2360" y="-191.981"></tspan>
      <tspan x="-2360" y="-177.87">= Multi =</tspan>
      <tspan x="-2360" y="-163.759"></tspan>
      <tspan x="-2360" y="-149.647">- promote mana</tspan>
      <tspan x="-2360" y="-135.536">- cast spell</tspan>
      <tspan x="-2360" y="-121.425">- sacrifice active spells</tspan>
      <tspan x="-2360" y="-107.314">- use active spell ability (upkeep?)</tspan>
    </text>
    <rect style="fill: #ffffff; fill-opacity: 1; stroke-opacity: 1; stroke-width: 2; stroke-dasharray: 4; stroke: #000000" x="-1580" y="-540" width="280" height="380" rx="0" ry="0"/>
    <text font-size="11.2889" style="fill: #000000; fill-opacity: 1; stroke: none;text-anchor:middle;font-family:sans-serif;font-style:normal;font-weight:normal" x="-1440" y="-473.092">
      <tspan x="-1440" y="-473.092">Setup</tspan>
      <tspan x="-1440" y="-458.981">-----------</tspan>
      <tspan x="-1440" y="-444.87"></tspan>
      <tspan x="-1440" y="-430.759">= Initial draws =</tspan>
      <tspan x="-1440" y="-416.647"></tspan>
      <tspan x="-1440" y="-402.536">- draw player order</tspan>
      <tspan x="-1440" y="-388.425">- draw common quests</tspan>
      <tspan x="-1440" y="-374.314">- draw common spells</tspan>
      <tspan x="-1440" y="-360.203"></tspan>
      <tspan x="-1440" y="-346.092">= For each player =</tspan>
      <tspan x="-1440" y="-331.981"></tspan>
      <tspan x="-1440" y="-317.87">(use reverse order here)</tspan>
      <tspan x="-1440" y="-303.759"></tspan>
      <tspan x="-1440" y="-289.647">- choose a commander color</tspan>
      <tspan x="-1440" y="-275.536">- choose 1 out of N commanders</tspan>
      <tspan x="-1440" y="-261.425">- choose starting tower position</tspan>
      <tspan x="-1440" y="-247.314">- place initial home lands around it and</tspan>
      <tspan x="-1440" y="-233.203">add corresponding manas to ring</tspan>
      <tspan x="-1440" y="-219.092">- reserve 1 common spell</tspan>
    </text>
    <rect style="fill: #ffffff; fill-opacity: 1; stroke-opacity: 1; stroke-width: 2; stroke-dasharray: 4; stroke: #000000" x="-2200" y="-520" width="260" height="280" rx="0" ry="0"/>
    <text font-size="11.2889" style="fill: #000000; fill-opacity: 1; stroke: none;text-anchor:middle;font-family:sans-serif;font-style:normal;font-weight:normal" x="-2070" y="-496.201">
      <tspan x="-2070" y="-496.201">Turns</tspan>
      <tspan x="-2070" y="-482.089">-----------</tspan>
      <tspan x="-2070" y="-467.978"></tspan>
      <tspan x="-2070" y="-453.867">= Pre =</tspan>
      <tspan x="-2070" y="-439.756"></tspan>
      <tspan x="-2070" y="-425.645">- remove common spells with your mark</tspan>
      <tspan x="-2070" y="-411.534">- move mana from used to active</tspan>
      <tspan x="-2070" y="-397.423">- reserve one common spell</tspan>
      <tspan x="-2070" y="-383.312"></tspan>
      <tspan x="-2070" y="-369.201">= Main =</tspan>
      <tspan x="-2070" y="-355.089"></tspan>
      <tspan x="-2070" y="-340.978">- perform actions</tspan>
      <tspan x="-2070" y="-326.867"></tspan>
      <tspan x="-2070" y="-312.756">= Pos =</tspan>
      <tspan x="-2070" y="-298.645"></tspan>
      <tspan x="-2070" y="-284.534">- mark common spells with your color</tspan>
      <tspan x="-2070" y="-270.423">- move active temporary spells to graveyard</tspan>
      <tspan x="-2070" y="-256.312">- remove remaining mana in use</tspan>
    </text>
    <rect style="fill: #ffffff; fill-opacity: 1; stroke-opacity: 1; stroke-width: 2; stroke-dasharray: 4; stroke: #000000" x="-1580" y="-120" width="240" height="240" rx="0" ry="0"/>
    <text font-size="11.2889" style="fill: #000000; fill-opacity: 1; stroke: none;text-anchor:middle;font-family:sans-serif;font-style:normal;font-weight:normal" x="-1460" y="-80.7586">
      <tspan x="-1460" y="-80.7586">Land Placement</tspan>
      <tspan x="-1460" y="-66.6475">------------------------</tspan>
      <tspan x="-1460" y="-52.5363"></tspan>
      <tspan x="-1460" y="-38.4252">- must border two tiles in your territory</tspan>
      <tspan x="-1460" y="-24.3141"></tspan>
      <tspan x="-1460" y="-10.203">- must border neighbour colors only</tspan>
      <tspan x="-1460" y="3.90811"></tspan>
      <tspan x="-1460" y="18.0192">- for each adjacent opponent tile,</tspan>
      <tspan x="-1460" y="32.1303">promote used -&gt; active</tspan>
      <tspan x="-1460" y="46.2414">(adjacent colors)</tspan>
      <tspan x="-1460" y="60.3526"></tspan>
      <tspan x="-1460" y="74.4637">- If necessary, add tokens to</tspan>
      <tspan x="-1460" y="88.5748">distinguish between territories</tspan>
    </text>
    <rect style="fill: #ffffff; fill-opacity: 1; stroke-opacity: 1; stroke-width: 2; stroke-dasharray: 4; stroke: #000000" x="-1880" y="-340" width="240" height="440" rx="0" ry="0"/>
    <text font-size="11.2889" style="fill: #000000; fill-opacity: 1; stroke: none;text-anchor:middle;font-family:sans-serif;font-style:normal;font-weight:normal" x="-1760" y="-299.701">
      <tspan x="-1760" y="-299.701">Mana Ring</tspan>
      <tspan x="-1760" y="-285.589">----------------</tspan>
      <tspan x="-1760" y="-271.478"></tspan>
      <tspan x="-1760" y="-257.367">- setup adds used manas, one</tspan>
      <tspan x="-1760" y="-243.256">for each home land</tspan>
      <tspan x="-1760" y="-229.145"></tspan>
      <tspan x="-1760" y="-215.034">- at the beginning of each turn,</tspan>
      <tspan x="-1760" y="-200.923">move used -&gt; active</tspan>
      <tspan x="-1760" y="-186.812">- at the end, remove remaining</tspan>
      <tspan x="-1760" y="-172.701">mana in use</tspan>
      <tspan x="-1760" y="-158.589"></tspan>
      <tspan x="-1760" y="-144.478">- move active -&gt; used</tspan>
      <tspan x="-1760" y="-130.367">to pay for spells</tspan>
      <tspan x="-1760" y="-116.256">(use the "in use" space if needed)</tspan>
      <tspan x="-1760" y="-102.145"></tspan>
      <tspan x="-1760" y="-88.0339">= Mana Promotion =</tspan>
      <tspan x="-1760" y="-73.9228"></tspan>
      <tspan x="-1760" y="-59.8117">- BURN: 2 used -&gt; 1 active</tspan>
      <tspan x="-1760" y="-45.7006"></tspan>
      <tspan x="-1760" y="-31.5895">- LAND: 1 active -&gt; 1 used</tspan>
      <tspan x="-1760" y="-17.4784">(neighbours colors)</tspan>
      <tspan x="-1760" y="-3.36727">place 1 land of used color</tspan>
      <tspan x="-1760" y="10.7438"></tspan>
      <tspan x="-1760" y="24.855">- HOME: 1 active -&gt; 2 used home</tspan>
      <tspan x="-1760" y="38.9661">(not neighbour colors)</tspan>
      <tspan x="-1760" y="53.0772">(used is home color)</tspan>
      <tspan x="-1760" y="67.1883">place 2 home lands</tspan>
    </text>
    <rect style="fill: #ffffff; fill-opacity: 1; stroke-opacity: 1; stroke-width: 2; stroke-dasharray: 4; stroke: #000000" x="-1200" y="-300" width="280" height="260" rx="0" ry="0"/>
    <text font-size="11.2889" style="fill: #000000; fill-opacity: 1; stroke: none;text-anchor:middle;font-family:sans-serif;font-style:normal;font-weight:normal" x="-1060" y="-264.87">
      <tspan x="-1060" y="-264.87">Common Spells</tspan>
      <tspan x="-1060" y="-250.759">-----------------------</tspan>
      <tspan x="-1060" y="-236.647"></tspan>
      <tspan x="-1060" y="-222.536">- setup draws one slot for each player</tspan>
      <tspan x="-1060" y="-208.425">- players can reserve or cast spells</tspan>
      <tspan x="-1060" y="-194.314">- draw new cards to fill empty slots</tspan>
      <tspan x="-1060" y="-180.203"></tspan>
      <tspan x="-1060" y="-166.092">= Players, Each Turn =</tspan>
      <tspan x="-1060" y="-151.981"></tspan>
      <tspan x="-1060" y="-137.87">- Pre: redraw cards with your marks</tspan>
      <tspan x="-1060" y="-123.759"></tspan>
      <tspan x="-1060" y="-109.647">- Main: reserve at most 1 card</tspan>
      <tspan x="-1060" y="-95.5363">swap if needed</tspan>
      <tspan x="-1060" y="-81.4252"></tspan>
      <tspan x="-1060" y="-67.3141">- Pos: add marks to empty cards</tspan>
    </text>
    <rect style="fill: #ffffff; fill-opacity: 1; stroke-opacity: 1; stroke-width: 2; stroke-dasharray: 4; stroke: #000000" x="-1200" y="-560" width="280" height="240" rx="0" ry="0"/>
    <text font-size="11.2889" style="fill: #000000; fill-opacity: 1; stroke: none;text-anchor:middle;font-family:sans-serif;font-style:normal;font-weight:normal" x="-1060" y="-527.814">
      <tspan x="-1060" y="-527.814">Common Quests</tspan>
      <tspan x="-1060" y="-513.703">-------------------------</tspan>
      <tspan x="-1060" y="-499.592"></tspan>
      <tspan x="-1060" y="-485.481">- setup draws 4 quests</tspan>
      <tspan x="-1060" y="-471.37"></tspan>
      <tspan x="-1060" y="-457.259">- players complete quests to gain VPs</tspan>
      <tspan x="-1060" y="-443.147"></tspan>
      <tspan x="-1060" y="-429.036">- players can complete the same quests:</tspan>
      <tspan x="-1060" y="-414.925"></tspan>
      <tspan x="-1060" y="-400.814">- 1st gains 4 VPs</tspan>
      <tspan x="-1060" y="-386.703">- 2nd gains 2 VPs</tspan>
      <tspan x="-1060" y="-372.592">- others gain 1 VP</tspan>
      <tspan x="-1060" y="-358.481"></tspan>
      <tspan x="-1060" y="-344.37">- game finishes when all quests are completed</tspan>
    </text>
    <rect style="fill: #ffffff; fill-opacity: 1; stroke-opacity: 1; stroke-width: 2; stroke-dasharray: 4; stroke: #000000" x="-1880" y="-660" width="240" height="260" rx="0" ry="0"/>
    <text font-size="11.2889" style="fill: #000000; fill-opacity: 1; stroke: none;text-anchor:middle;font-family:sans-serif;font-style:normal;font-weight:normal" x="-1760" y="-624.87">
      <tspan x="-1760" y="-624.87">Game Flow</tspan>
      <tspan x="-1760" y="-610.759">------------------</tspan>
      <tspan x="-1760" y="-596.647"></tspan>
      <tspan x="-1760" y="-582.536">= Setup =</tspan>
      <tspan x="-1760" y="-568.425"></tspan>
      <tspan x="-1760" y="-554.314">- draw initial cards</tspan>
      <tspan x="-1760" y="-540.203">- players draft</tspan>
      <tspan x="-1760" y="-526.092"></tspan>
      <tspan x="-1760" y="-511.981">= Turns =</tspan>
      <tspan x="-1760" y="-497.87"></tspan>
      <tspan x="-1760" y="-483.759">- players take turns</tspan>
      <tspan x="-1760" y="-469.647"></tspan>
      <tspan x="-1760" y="-455.536">= Finale =</tspan>
      <tspan x="-1760" y="-441.425"></tspan>
      <tspan x="-1760" y="-427.314">- players complete all quests</tspan>
    </text>
    <g>
      <line style="fill: none; stroke-opacity: 1; stroke-width: 2; stroke: #000000" x1="-1675.13" y1="-554.597" x2="-1560.04" y2="-499.357"/>
      <polygon style="fill: #000000; fill-opacity: 1; stroke-opacity: 1; stroke-width: 2; stroke: #000000" fill-rule="evenodd" points="-1562.21,-494.85 -1551.03,-495.03 -1557.88,-503.865 "/>
    </g>
    <g>
      <line style="fill: none; stroke-opacity: 1; stroke-width: 2; stroke: #000000" x1="-1328" y1="-393.597" x2="-1193.21" y2="-481.584"/>
      <polygon style="fill: #000000; fill-opacity: 1; stroke-opacity: 1; stroke-width: 2; stroke: #000000" fill-rule="evenodd" points="-1190.48,-477.397 -1184.84,-487.05 -1195.94,-485.771 "/>
    </g>
    <g>
      <line style="fill: none; stroke-opacity: 1; stroke-width: 2; stroke: #000000" x1="-1326" y1="-379.597" x2="-1180.38" y2="-290.345"/>
      <polygon style="fill: #000000; fill-opacity: 1; stroke-opacity: 1; stroke-width: 2; stroke: #000000" fill-rule="evenodd" points="-1182.99,-286.082 -1171.85,-285.12 -1177.76,-294.608 "/>
    </g>
    <g>
      <line style="fill: none; stroke-opacity: 1; stroke-width: 2; stroke: #000000" x1="-1563.13" y1="-236.597" x2="-1644.18" y2="-244.526"/>
      <polygon style="fill: #000000; fill-opacity: 1; stroke-opacity: 1; stroke-width: 2; stroke: #000000" fill-rule="evenodd" points="-1643.69,-249.502 -1654.13,-245.5 -1644.67,-239.55 "/>
    </g>
    <g>
      <line style="fill: none; stroke-opacity: 1; stroke-width: 2; stroke: #000000" x1="-1760" y1="-718.995" x2="-1760" y2="-671.974"/>
      <polygon style="fill: #000000; fill-opacity: 1; stroke-opacity: 1; stroke-width: 2; stroke: #000000" fill-rule="evenodd" points="-1765,-671.974 -1760,-661.974 -1755,-671.974 "/>
    </g>
    <rect style="fill: #ffffff; fill-opacity: 1; stroke-opacity: 1; stroke-width: 2; stroke-dasharray: 4; stroke: #000000" x="-1860" y="-780" width="200" height="60" rx="0" ry="0"/>
    <text font-size="12.8" style="fill: #000000; fill-opacity: 1; stroke: none;text-anchor:middle;font-family:sans-serif;font-style:normal;font-weight:700" x="-1760" y="-745.569">
      <tspan x="-1760" y="-745.569">START HERE</tspan>
    </text>
    <g>
      <line style="fill: none; stroke-opacity: 1; stroke-width: 2; stroke: #000000" x1="-2176" y1="-343.597" x2="-2281.37" y2="-315.437"/>
      <polygon style="fill: #000000; fill-opacity: 1; stroke-opacity: 1; stroke-width: 2; stroke: #000000" fill-rule="evenodd" points="-2282.66,-320.268 -2291.03,-312.855 -2280.08,-310.607 "/>
    </g>
    <g>
      <line style="fill: none; stroke-opacity: 1; stroke-width: 2; stroke: #000000" x1="-2441.79" y1="-233.597" x2="-2525.99" y2="-190.6"/>
      <polygon style="fill: #000000; fill-opacity: 1; stroke-opacity: 1; stroke-width: 2; stroke: #000000" fill-rule="evenodd" points="-2528.27,-195.053 -2534.9,-186.052 -2523.72,-186.147 "/>
    </g>
    <g>
      <line style="fill: none; stroke-opacity: 1; stroke-width: 2; stroke: #000000" x1="-2533.79" y1="-80.5971" x2="-2453.02" y2="-41.3999"/>
      <polygon style="fill: #000000; fill-opacity: 1; stroke-opacity: 1; stroke-width: 2; stroke: #000000" fill-rule="evenodd" points="-2455.21,-36.9016 -2444.03,-37.0337 -2450.84,-45.8981 "/>
    </g>
    <g>
      <line style="fill: none; stroke-opacity: 1; stroke-width: 2; stroke: #000000" x1="-2682.79" y1="-73.5971" x2="-2788.81" y2="-34.4107"/>
      <polygon style="fill: #000000; fill-opacity: 1; stroke-opacity: 1; stroke-width: 2; stroke: #000000" fill-rule="evenodd" points="-2790.54,-39.1006 -2798.19,-30.9438 -2787.08,-29.7208 "/>
    </g>
    <g>
      <line style="fill: none; stroke-opacity: 1; stroke-width: 2; stroke: #000000" x1="-1649.13" y1="39.4029" x2="-1570.26" y2="-53.2219"/>
      <polygon style="fill: #000000; fill-opacity: 1; stroke-opacity: 1; stroke-width: 2; stroke: #000000" fill-rule="evenodd" points="-1566.45,-49.9804 -1563.78,-60.8357 -1574.07,-56.4634 "/>
    </g>
    <g>
      <line style="fill: none; stroke-opacity: 1; stroke-width: 2; stroke: #000000" x1="-1650.13" y1="-19.5971" x2="-1567.52" y2="-69.8777"/>
      <polygon style="fill: #000000; fill-opacity: 1; stroke-opacity: 1; stroke-width: 2; stroke: #000000" fill-rule="evenodd" points="-1564.92,-65.6067 -1558.98,-75.0772 -1570.12,-74.1487 "/>
    </g>
    <g>
      <line style="fill: none; stroke-opacity: 1; stroke-width: 2; stroke-dasharray: 4; stroke: #000000" x1="-2301.79" y1="-153.597" x2="-1872.68" y2="-93.132"/>
      <polygon style="fill: #000000; fill-opacity: 1; stroke-opacity: 1; stroke-width: 2; stroke: #000000" fill-rule="evenodd" points="-1873.38,-88.1809 -1862.78,-91.7366 -1871.99,-98.083 "/>
    </g>
    <rect style="fill: #ffffff; fill-opacity: 1; stroke-opacity: 1; stroke-width: 2; stroke-dasharray: 4; stroke: #000000" x="-2200" y="-180" width="260" height="420" rx="0" ry="0"/>
    <text font-size="11.2889" style="fill: #000000; fill-opacity: 1; stroke: none;text-anchor:middle;font-family:sans-serif;font-style:normal;font-weight:normal" x="-2070" y="-149.536">
      <tspan x="-2070" y="-149.536">Spells</tspan>
      <tspan x="-2070" y="-135.425">---------</tspan>
      <tspan x="-2070" y="-121.314"></tspan>
      <tspan x="-2070" y="-107.203">- cast spells move to active spells</tspan>
      <tspan x="-2070" y="-93.0919"></tspan>
      <tspan x="-2070" y="-78.9808">- pay the cost at the top right </tspan>
      <tspan x="-2070" y="-64.8697"></tspan>
      <tspan x="-2070" y="-50.7586">- spells can be</tspan>
      <tspan x="-2070" y="-36.6475">(i) creatures or sorceries</tspan>
      <tspan x="-2070" y="-22.5363">(ii) temporary (T) or permanent (P)</tspan>
      <tspan x="-2070" y="-8.42523"></tspan>
      <tspan x="-2070" y="5.68588">- temporary spells move to graveyard</tspan>
      <tspan x="-2070" y="19.797">at the end of turn</tspan>
      <tspan x="-2070" y="33.9081"></tspan>
      <tspan x="-2070" y="48.0192">= Creatures =</tspan>
      <tspan x="-2070" y="62.1303"></tspan>
      <tspan x="-2070" y="76.2414">- have strength indicated</tspan>
      <tspan x="-2070" y="90.3526">at the bottom right</tspan>
      <tspan x="-2070" y="104.464"></tspan>
      <tspan x="-2070" y="118.575">- permanents can only be</tspan>
      <tspan x="-2070" y="132.686">cast on your territory</tspan>
      <tspan x="-2070" y="146.797"></tspan>
      <tspan x="-2070" y="160.908">- burn 1 mana to promote permanent,</tspan>
      <tspan x="-2070" y="175.019">it gets +1 strength:</tspan>
      <tspan x="-2070" y="189.13">(i) only one creature per turn</tspan>
      <tspan x="-2070" y="203.241">(ii) max 3 times per creature</tspan>
      <tspan x="-2070" y="217.353">(iii) burn same color of creature</tspan>
    </text>
    <g>
      <line style="fill: none; stroke-opacity: 1; stroke-width: 2; stroke: #000000" x1="-1959.79" y1="-87.5971" x2="-1870.41" y2="-137.255"/>
      <polygon style="fill: #000000; fill-opacity: 1; stroke-opacity: 1; stroke-width: 2; stroke: #000000" fill-rule="evenodd" points="-1867.98,-132.884 -1861.66,-142.111 -1872.83,-141.626 "/>
    </g>
    <g>
      <line style="fill: none; stroke-opacity: 1; stroke-width: 2; stroke: #000000" x1="-2275.79" y1="-138.597" x2="-2197.41" y2="-117.461"/>
      <polygon style="fill: #000000; fill-opacity: 1; stroke-opacity: 1; stroke-width: 2; stroke: #000000" fill-rule="evenodd" points="-2198.71,-112.634 -2187.76,-114.857 -2196.11,-122.289 "/>
    </g>
    <g>
      <line style="fill: none; stroke-opacity: 1; stroke-width: 2; stroke: #000000" x1="-1857" y1="-487.597" x2="-1965.01" y2="-493.043"/>
      <polygon style="fill: #000000; fill-opacity: 1; stroke-opacity: 1; stroke-width: 2; stroke: #000000" fill-rule="evenodd" points="-1964.76,-498.037 -1975,-493.547 -1965.26,-488.05 "/>
    </g>
  </g>
</svg>
